<svg xmlns="http://www.w3.org/2000/svg" xmlns:xlink="http://www.w3.org/1999/xlink" viewBox="0 0 100 70"><defs><style>.cls-1{fill:url(#Degradado_sin_nombre_3);}.cls-2{fill:url(#Degradado_sin_nombre_3-2);}.cls-3{fill:url(#Degradado_sin_nombre_12);}.cls-4{fill:#fdcff3;}.cls-5{fill:#363e50;}</style><linearGradient id="Degradado_sin_nombre_3" x1="67.44" y1="25.86" x2="67.44" y2="25.86" gradientUnits="userSpaceOnUse"><stop offset="0" stop-color="#009ee2"/><stop offset="1" stop-color="#e5007d"/></linearGradient><linearGradient id="Degradado_sin_nombre_3-2" x1="35.32" y1="20.93" x2="35.36" y2="20.93" xlink:href="#Degradado_sin_nombre_3"/><linearGradient id="Degradado_sin_nombre_12" x1="37.53" y1="35.22" x2="64.59" y2="8.15" gradientUnits="userSpaceOnUse"><stop offset="0" stop-color="#b49de9"/><stop offset="1" stop-color="#fdcff3"/></linearGradient></defs><title>Logotipo1</title><g id="Capa_2" data-name="Capa 2"><g id="Capa_1-2" data-name="Capa 1"><path class="cls-1" d="M67.44,25.87h0Z"/><path class="cls-2" d="M35.32,21l0-.09,0,.05Z"/><path class="cls-3" d="M69.33,25.56a1.41,1.41,0,0,0-.23-.35L69,25.13a18.19,18.19,0,0,1-1.73-2.64,11.24,11.24,0,0,1-1.12-2.86,6,6,0,0,1-.13-.72L66,18.08a14.42,14.42,0,0,0-.39-1.83,12.88,12.88,0,0,0-4-6.3,13.9,13.9,0,0,0-3.21-2c-.56-.28-1.16-.44-1.74-.67h0c.23-.68.45-1.37.64-2.08a14.26,14.26,0,0,0,.42-2.07,4.19,4.19,0,0,0,0-.65,3,3,0,0,0,0-.4,2,2,0,0,0-.11-.54,3.62,3.62,0,0,0-.13-.35l0-.09L57.34,1h0l0,0L57.18.75A2,2,0,0,0,56.06.07a2.55,2.55,0,0,0-.7-.07h-.21L55,0h-.08l-.47.1L53.8.34a10.42,10.42,0,0,0-1,.37c-.63.24-1.21.5-1.81.77C49.79,2,48.64,2.6,47.52,3.24S45.3,4.55,44.24,5.29s-2.09,1.52-3.1,2.32-2,1.72-2.86,2.66A15,15,0,0,0,37,11.71c-.42.51-.87,1-1.25,1.52l-1.17,1.59-1,1.69a18.26,18.26,0,0,0-.93,1.75l-.44.88-.11.23-.08.17,0,.06,0,.11-.15.43c-.11.31-.22.56-.31.91l-.24,1.18a5.54,5.54,0,0,0-.11,1.13,8.22,8.22,0,0,0,0,1.11,11.39,11.39,0,0,0,1.11,4.13A18,18,0,0,0,34.4,32a28.23,28.23,0,0,0,2.69,2.77c.95.84,1.92,1.65,2.92,2.4s2,1.48,3,2.19a.2.2,0,0,0,.25,0,.21.21,0,0,0,0-.29c-1.64-1.88-3.34-3.69-4.84-5.59a26.07,26.07,0,0,1-2.09-2.92,15.93,15.93,0,0,1-1.51-3,9.4,9.4,0,0,1-.5-3.08,6.34,6.34,0,0,1,.07-.75,3,3,0,0,1,.14-.7l.18-.64c.07-.23.24-.55.35-.82l.18-.43,0-.05h0l0,0,.1-.19.44-.75a15.69,15.69,0,0,1,.91-1.47l1-1.42,1.09-1.36c.35-.46.78-.87,1.16-1.3s.79-.87,1.21-1.27c.81-.84,1.71-1.61,2.58-2.4S45.65,9.3,46.6,8.6s1.92-1.4,2.92-2,2-1.24,3-1.8c.52-.27,1-.55,1.57-.77h0c0,.14-.05.29-.08.44a31.07,31.07,0,0,1-1,3.37l0,0c0,.07,0,.13,0,.19a1.59,1.59,0,0,0,1.22,1.88l1.51.31c.48.17,1,.28,1.43.48a11.06,11.06,0,0,1,2.58,1.45A10.21,10.21,0,0,1,63.13,17a11.71,11.71,0,0,1,.39,1.46l.15.83a7.13,7.13,0,0,0,.21.94,13.82,13.82,0,0,0,1.47,3.37,20.38,20.38,0,0,0,1.88,2.64l-.3.53c-.28.44-.55.91-.87,1.32a9,9,0,0,1-2.16,2.15,6.65,6.65,0,0,1-2.8,1.05c-2.05.31-4.4-.06-6.75.43A10.9,10.9,0,0,0,51,33c-.25.14-.5.32-.75.48s-.44.3-.7.53a4.82,4.82,0,0,0-1.14,1.47,12.32,12.32,0,0,0-1,3.34,21.67,21.67,0,0,0-.27,3.41.19.19,0,0,0,.19.2.19.19,0,0,0,.21-.19,21.52,21.52,0,0,1,.48-3.3,11.19,11.19,0,0,1,1.12-3.06,4.21,4.21,0,0,1,1-1.14,8,8,0,0,1,.68-.45c.23-.13.45-.27.69-.39a9.67,9.67,0,0,1,3-1c2.12-.34,4.3.15,6.73-.06a8.12,8.12,0,0,0,3.54-1.12,10.57,10.57,0,0,0,2.75-2.44,16.25,16.25,0,0,0,1.07-1.44l.47-.75.12-.19.05-.08,0,0,0-.13a1.76,1.76,0,0,0,.08-.37A1.55,1.55,0,0,0,69.33,25.56Z"/><path class="cls-4" d="M59.09,20.29c.32.12.64.22,1,.31s.55.1.72-.09.1-.58,0-.85c-.4-.83-.8-1.66-1.21-2.49a4.8,4.8,0,0,0-.39-.7,4.32,4.32,0,0,0-.47-.57,1.84,1.84,0,0,0-1.11-.74,1.15,1.15,0,0,0-1,.53,2,2,0,0,0-.3,1.13,3.38,3.38,0,0,0,.49,1.69A4.82,4.82,0,0,0,59.09,20.29Z"/><path class="cls-5" d="M2.89,60.87a3.38,3.38,0,0,1-1.73-.4A4,4,0,0,1,0,59.54l1.23-1.37a3.18,3.18,0,0,0,.76.65,1.58,1.58,0,0,0,.85.24,1.12,1.12,0,0,0,.87-.35A1.6,1.6,0,0,0,4,57.59V51.88H6v5.8a3.84,3.84,0,0,1-.22,1.38,2.69,2.69,0,0,1-.62,1,2.65,2.65,0,0,1-1,.62A3.87,3.87,0,0,1,2.89,60.87Z"/><path class="cls-5" d="M8,51.88h2v3.5h3.58v-3.5h2v8.86h-2V57.18H10v3.56H8Z"/><path class="cls-5" d="M21.91,60.89a4.79,4.79,0,0,1-3.37-1.33,4.25,4.25,0,0,1-1-1.45,4.56,4.56,0,0,1-.35-1.78v0a4.59,4.59,0,0,1,.35-1.78,4.87,4.87,0,0,1,1-1.46,4.76,4.76,0,0,1,1.49-1,5.14,5.14,0,0,1,3.78,0,4.69,4.69,0,0,1,1.48,1,4.31,4.31,0,0,1,1,1.44,4.63,4.63,0,0,1,.35,1.78v0a4.63,4.63,0,0,1-.35,1.78,4.7,4.7,0,0,1-1,1.45,4.62,4.62,0,0,1-1.49,1A4.89,4.89,0,0,1,21.91,60.89Zm0-1.8A2.74,2.74,0,0,0,23,58.88a2.31,2.31,0,0,0,.84-.6,2.71,2.71,0,0,0,.54-.88,2.91,2.91,0,0,0,.2-1.07v0a3,3,0,0,0-.2-1.08,2.7,2.7,0,0,0-.56-.88,2.43,2.43,0,0,0-.85-.6,2.54,2.54,0,0,0-1.07-.23,2.67,2.67,0,0,0-1.08.22,2.5,2.5,0,0,0-.84.59,2.92,2.92,0,0,0-.74,2v0a2.91,2.91,0,0,0,.2,1.07,2.64,2.64,0,0,0,.56.89,2.8,2.8,0,0,0,.84.6A2.58,2.58,0,0,0,21.93,59.09Z"/><path class="cls-5" d="M28.35,51.88h1.8l4.14,5.45V51.88h1.92v8.86H34.55l-4.28-5.63v5.63H28.35Z"/><path class="cls-5" d="M41.36,51.82h1.8L47,60.74h-2l-.8-2H40.37l-.81,2h-2Zm2,5.21-1.17-2.87L41.06,57Z"/><path class="cls-5" d="M50.37,53.68H47.68v-1.8H55v1.8H52.32v7.06h-2Z"/><path class="cls-5" d="M59.53,51.82h1.8l3.79,8.92h-2l-.81-2H58.53l-.8,2h-2Zm2,5.21L60.4,54.16,59.23,57Z"/><path class="cls-5" d="M66.48,51.88h1.8l4.14,5.45V51.88h1.92v8.86H72.69L68.4,55.11v5.63H66.48Z"/><path class="cls-5" d="M87.18,60.13a4.86,4.86,0,0,1-2.63.76,4.79,4.79,0,0,1-3.37-1.33,4.25,4.25,0,0,1-1-1.45,4.56,4.56,0,0,1-.35-1.78v0a4.59,4.59,0,0,1,.35-1.78,4.87,4.87,0,0,1,1-1.46,4.76,4.76,0,0,1,1.49-1,5.14,5.14,0,0,1,3.78,0,4.69,4.69,0,0,1,1.48,1,4.31,4.31,0,0,1,1,1.44,4.45,4.45,0,0,1,.35,1.78v0a4.63,4.63,0,0,1-.2,1.34,4.75,4.75,0,0,1-.58,1.2l.91.78L88.15,61Zm-2.61-1a2.88,2.88,0,0,0,1.17-.24L84.3,57.63l1.23-1.4L87,57.55a3,3,0,0,0,.24-1.22v0a3,3,0,0,0-.2-1.08,2.67,2.67,0,0,0-.55-.88,2.57,2.57,0,0,0-.86-.6,2.54,2.54,0,0,0-1.07-.23,2.67,2.67,0,0,0-1.08.22,2.5,2.5,0,0,0-.84.59,2.84,2.84,0,0,0-.73,2v0a2.9,2.9,0,0,0,.19,1.07,2.64,2.64,0,0,0,.56.89,2.8,2.8,0,0,0,.84.6A2.58,2.58,0,0,0,84.57,59.09Z"/><path class="cls-5" d="M95.29,60.89a4.79,4.79,0,0,1-3.37-1.33,4.25,4.25,0,0,1-1-1.45,4.56,4.56,0,0,1-.35-1.78v0A4.59,4.59,0,0,1,91,54.53a4.87,4.87,0,0,1,1-1.46,4.76,4.76,0,0,1,1.49-1,5.14,5.14,0,0,1,3.78,0,4.69,4.69,0,0,1,1.48,1,4.31,4.31,0,0,1,1,1.44,4.63,4.63,0,0,1,.35,1.78v0a4.63,4.63,0,0,1-.35,1.78,4.7,4.7,0,0,1-1,1.45,4.62,4.62,0,0,1-1.49,1A4.89,4.89,0,0,1,95.29,60.89Zm0-1.8a2.74,2.74,0,0,0,1.08-.21,2.31,2.31,0,0,0,.84-.6,2.71,2.71,0,0,0,.54-.88,2.91,2.91,0,0,0,.2-1.07v0a3,3,0,0,0-.2-1.08,2.7,2.7,0,0,0-.56-.88,2.43,2.43,0,0,0-.85-.6,2.54,2.54,0,0,0-1.07-.23,2.67,2.67,0,0,0-1.08.22,2.41,2.41,0,0,0-.84.59,2.92,2.92,0,0,0-.74,2v0a2.91,2.91,0,0,0,.2,1.07,2.64,2.64,0,0,0,.56.89,2.8,2.8,0,0,0,.84.6A2.58,2.58,0,0,0,95.31,59.09Z"/><path class="cls-5" d="M11.32,66.72h1.12a1.6,1.6,0,0,1,1.71,1.6h0a1.61,1.61,0,0,1-1.71,1.61H11.32Zm1.12,2.89a1.25,1.25,0,0,0,1.33-1.27h0a1.26,1.26,0,0,0-1.33-1.28h-.76v2.56Z"/><path class="cls-5" d="M16.29,66.72h2.33v.33h-2v1.1h1.76v.33H16.65v1.13h2v.33H16.29Z"/><path class="cls-5" d="M20.53,69.47l.23-.26a1.53,1.53,0,0,0,1.1.45c.44,0,.72-.23.72-.55h0c0-.3-.16-.47-.84-.62s-1.08-.4-1.08-.93h0a1,1,0,0,1,1.06-.88,1.68,1.68,0,0,1,1.13.4l-.21.28a1.44,1.44,0,0,0-.93-.35c-.42,0-.68.23-.68.52h0c0,.3.16.47.87.63s1.05.42,1.05.91h0c0,.55-.46.91-1.1.91A1.88,1.88,0,0,1,20.53,69.47Z"/><path class="cls-5" d="M26.19,66.7h.34L28,69.94H27.6l-.37-.85H25.47l-.38.85h-.37Zm.89,2.06-.73-1.64-.73,1.64Z"/><path class="cls-5" d="M30,66.72h1.39a1.27,1.27,0,0,1,.91.32.88.88,0,0,1,.25.64h0a1,1,0,0,1-.87.94l1,1.31h-.45l-.93-1.25h-.92v1.25H30Zm1.36,1.64c.48,0,.82-.25.82-.66h0c0-.4-.3-.64-.82-.64h-1v1.31Z"/><path class="cls-5" d="M34.7,66.72h1.39A1.27,1.27,0,0,1,37,67a.88.88,0,0,1,.25.64h0a1,1,0,0,1-.87.94l1,1.31h-.45L36,68.69h-.92v1.25H34.7Zm1.36,1.64c.48,0,.82-.25.82-.66h0c0-.4-.3-.64-.82-.64h-1v1.31Z"/><path class="cls-5" d="M39.26,68.34h0a1.64,1.64,0,0,1,1.65-1.67,1.62,1.62,0,0,1,1.64,1.66h0A1.64,1.64,0,0,1,40.9,70,1.62,1.62,0,0,1,39.26,68.34Zm2.91,0h0A1.29,1.29,0,0,0,40.9,67a1.26,1.26,0,0,0-1.26,1.32h0a1.27,1.27,0,1,0,2.53,0Z"/><path class="cls-5" d="M44.69,66.72h.36v2.89h1.81v.33H44.69Z"/><path class="cls-5" d="M48.91,66.72h.36v2.89h1.81v.33H48.91Z"/><path class="cls-5" d="M54.32,66.7h.34l1.47,3.24h-.39l-.38-.85H53.61l-.38.85h-.38Zm.9,2.06-.73-1.64-.74,1.64Z"/><path class="cls-5" d="M58.14,66.72h1.12A1.6,1.6,0,0,1,61,68.32h0a1.61,1.61,0,0,1-1.71,1.61H58.14Zm1.12,2.89a1.25,1.25,0,0,0,1.33-1.27h0a1.26,1.26,0,0,0-1.33-1.28H58.5v2.56Z"/><path class="cls-5" d="M63,68.34h0a1.64,1.64,0,1,1,3.28,0s0,0,0,0A1.64,1.64,0,0,1,64.6,70,1.61,1.61,0,0,1,63,68.34Zm2.9,0h0a1.27,1.27,0,1,0-2.53,0h0a1.29,1.29,0,0,0,1.27,1.33A1.26,1.26,0,0,0,65.87,68.34Z"/><path class="cls-5" d="M68.39,66.72h1.39a1.27,1.27,0,0,1,.91.32.88.88,0,0,1,.25.64h0a1,1,0,0,1-.87.94l1,1.31h-.45l-.93-1.25h-.92v1.25h-.37Zm1.36,1.64c.48,0,.82-.25.82-.66h0c0-.4-.3-.64-.82-.64h-1v1.31Z"/><path class="cls-5" d="M75.6,66.72H76l.92,2.69.88-2.7h.3l.88,2.7.92-2.69h.38L79.13,70h-.3l-.89-2.62L77.05,70h-.3Z"/><path class="cls-5" d="M82.31,66.72h2.33v.33h-2v1.1h1.75v.33H82.68v1.13h2v.33H82.31Z"/><path class="cls-5" d="M86.77,66.72h1.37A1.16,1.16,0,0,1,89,67a.7.7,0,0,1,.21.52h0a.79.79,0,0,1-.51.75.8.8,0,0,1,.69.78h0c0,.56-.47.88-1.17.88H86.77Zm1.31,1.44c.44,0,.74-.2.74-.58h0c0-.32-.25-.52-.71-.52h-1v1.11Zm.13,1.46c.49,0,.79-.22.79-.58h0c0-.35-.29-.55-.85-.55h-1v1.14Z"/></g></g></svg>
